inDegrees=yes
name=ik_S49_A08_T01
DataType=double
version=3
OpenSimVersion=4.3-2021-08-27-4bc7ad9
endheader
time	pelvis_tilt	pelvis_list	pelvis_rotation	pelvis_tx	pelvis_ty	pelvis_tz	hip_flexion_r	hip_adduction_r	hip_rotation_r	knee_angle_r	knee_angle_r_beta	ankle_angle_r	subtalar_angle_r	mtp_angle_r	hip_flexion_l	hip_adduction_l	hip_rotation_l	knee_angle_l	knee_angle_l_beta	ankle_angle_l	subtalar_angle_l	mtp_angle_l	lumbar_extension	lumbar_bending	lumbar_rotation	arm_flex_r	arm_add_r	arm_rot_r	elbow_flex_r	pro_sup_r	wrist_flex_r	wrist_dev_r	arm_flex_l	arm_add_l	arm_rot_l	elbow_flex_l	pro_sup_l	wrist_flex_l	wrist_dev_l
19.25999999999968	-4.65707840182726	-1.589427220120537	28.67416220510792	0	0.9399999999999999	0	38.13534852921057	-11.02704591153782	-10.15631667384961	52.03827416490536	0.9082392212331012	0	0	0	38.13534852921057	-11.02704591153782	-10.15631667384961	52.03827416490536	0.9082392212331012	0	0	0	-4.781386401007158	-0.1131325301829208	-2.348007938002813	31.96055460609743	-3.189484300751755	2.572876554098057	37.38994961609228	120.494626568035	0	0	62.91766085190041	-15.36530913840123	-3.88873947956198	28.76019324179371	113.3103677088693	0	0
19.27999999999968	-4.665460813230098	-1.58658061014612	28.73641090686572	0	0.9399999999999999	0	38.13843200652719	-11.02545986916918	-10.15616149211372	52.03916630264734	0.90825479197408	0	0	0	38.13843200652719	-11.02545986916918	-10.15616149211372	52.03916630264734	0.90825479197408	0	0	0	-4.789368769639887	-0.09881539165160981	-2.432147214580216	31.94763515404858	-3.181609937013174	2.484000738864	37.43958482703164	120.5143592599757	0	0	61.38012861708694	-15.44039408379142	-4.637682189730051	31.12404316183582	113.0224048716599	0	0
19.29999999999968	-4.670330748990804	-1.582281837370359	28.85654622441517	0	0.9399999999999999	0	38.14073336711025	-11.02428221484856	-10.15604604299558	52.03983485945866	0.9082664604916741	0	0	0	38.14073336711025	-11.02428221484856	-10.15604604299558	52.03983485945866	0.9082664604916741	0	0	0	-4.794599986667735	-0.08167670702124666	-2.549807683730985	31.91322097912568	-3.16894545285396	2.418140420346198	37.49383565954311	120.5399936827638	0	0	59.63388013042213	-15.53346728159302	-5.436249411158994	33.85022456568895	112.748882708269	0	0
19.31999999999968	-4.67564148275772	-1.598867861881677	29.00710834141823	0	0.9399999999999999	0	38.14289857317617	-11.02317677764177	-10.15593757072687	52.04046474784914	0.9082774541180082	0	0	0	38.14289857317617	-11.02317677764177	-10.15593757072687	52.04046474784914	0.9082774541180082	0	0	0	-4.811002547938044	-0.08146347027014811	-2.685257041683792	31.89601527094863	-3.125623802885865	2.39986072390988	37.57829355458598	120.4662611875928	0	0	57.71928667211161	-15.66757395107325	-6.157401864432647	37.06259962770019	112.8595030672603	0	0
19.33999999999968	-4.69900231544434	-1.612252452052355	29.13148244010085	0	0.9399999999999999	0	38.1452982939189	-11.02195085941827	-10.15581728710424	52.04116203843853	0.9082896241346361	0	0	0	38.1452982939189	-11.02195085941827	-10.15581728710424	52.04116203843853	0.9082896241346361	0	0	0	-4.841383273494404	-0.07220047349321666	-2.796246570377797	31.90563024932801	-3.110276588697853	2.403439713289578	37.68379914940186	120.4161625274904	0	0	55.63950341396141	-15.80202591166531	-6.749471282044608	40.63652601866963	113.1407770304527	0	0
19.35999999999968	-4.707545198210466	-1.615562556674122	29.23115778252296	0	0.9399999999999999	0	38.14768051642056	-11.02072691583253	-10.15569741884937	52.0418500781981	0.9083016326938252	0	0	0	38.14768051642056	-11.02072691583253	-10.15569741884937	52.0418500781981	0.9083016326938252	0	0	0	-4.852291979944235	-0.06418185404295855	-2.887524538239972	31.87143679110961	-3.124464701596251	2.455648328505045	37.78317450784386	120.3624146658638	0	0	53.39762923098333	-16.05139640141504	-7.152145590044201	42.76711161312084	112.9133721019068	0	0
19.37999999999968	-4.751589539202737	-1.642576647238338	29.2608575381879	0	0.9399999999999999	0	38.15098690686287	-11.01902984000845	-10.15553112673713	52.04280508816278	0.9083183007620983	0	0	0	38.15098690686287	-11.01902984000845	-10.15553112673713	52.04280508816278	0.9083183007620983	0	0	0	-4.902876622982363	-0.06827271704173515	-2.864022923008021	31.90929542583035	-3.143751523162446	2.420069372341549	37.92014629198331	120.3019165259338	0	0	51.22889003839942	-16.18586489498632	-7.172320989905919	46.56638826607195	113.0249098502057	0	0
19.39999999999968	-4.773576277437562	-1.674455084124827	29.22782653208579	0	0.9399999999999999	0	38.15467539777503	-11.01713409337378	-10.15534541691552	52.04386804633832	0.9083368528820724	0	0	0	38.15467539777503	-11.01713409337378	-10.15534541691552	52.04386804633832	0.9083368528820724	0	0	0	-4.934755370345512	-0.09318911870213764	-2.778674019063152	31.89996847226648	-3.141414837258335	2.397373442477379	38.03708922190816	120.2342236959657	0	0	49.1212976059172	-16.30399851211136	-6.85780788329519	49.98008294940456	113.5326556159112	0	0
19.41999999999967	-4.791915644722384	-1.738753705203113	29.16519669470908	0	0.9399999999999999	0	38.15656655318385	-11.01619397785236	-10.15525224852228	52.04443024544762	0.9083466651075816	0	0	0	38.15656655318385	-11.01619397785236	-10.15525224852228	52.04443024544762	0.9083466651075816	0	0	0	-4.977840415645185	-0.1557505997086506	-2.624731296909407	31.91746773318568	-3.097281324508625	2.295922453207079	38.17127041734362	120.1483486099267	0	0	49.25318885696436	-16.18600527913925	-6.531386918804223	50.77967526503789	114.8623693035575	0	0
19.43999999999967	-4.804636293900256	-1.724539422356893	29.08296596308298	0	0.9399999999999999	0	38.15997723622858	-11.01444137395894	-10.15508049625557	52.04541182288282	0.908363796865689	0	0	0	38.15997723622858	-11.01444137395894	-10.15508049625557	52.04541182288282	0.908363796865689	0	0	0	-4.977945564998566	-0.1476256376060134	-2.495942649628821	31.84488618861791	-3.19606371559667	2.325740701357256	38.28128439683113	120.1275345212599	0	0	47.04070845866411	-16.07926658317668	-6.02962362626301	53.01459128996194	115.4530035008048	0	0
19.45999999999967	-4.795754457108933	-1.77917491351115	29.2108745158811	0	0.9399999999999999	0	38.16236073626109	-11.01323948395472	-10.154961934953	52.04610994925039	0.9083759814693982	0	0	0	38.16236073626109	-11.01323948395472	-10.154961934953	52.04610994925039	0.9083759814693982	0	0	0	-4.993391113987886	-0.2134981028376401	-2.373077428177288	31.7898477280661	-3.283598741362769	2.155883317190424	38.41135917511511	120.0150510514017	0	0	47.09843737958082	-15.78732345761328	-5.522277616791871	52.33854413859648	116.545514047477	0	0
19.47999999999967	-4.783679786665276	-1.815754731742169	29.18134512178253	0	0.9399999999999999	0	38.16572985473692	-11.01151075342761	-10.15479238141688	52.04707931418353	0.9083929000791349	0	0	0	38.16572985473692	-11.01151075342761	-10.15479238141688	52.04707931418353	0.9083929000791349	0	0	0	-4.988179193615947	-0.2804772636529789	-2.073664338621952	31.70989056530712	-3.410496720016035	2.0709903701004	38.54807483179068	120.0546391366193	0	0	43.33906966231412	-15.33446332401579	-4.177865100634904	54.29785898166033	116.9830903649437	0	0
19.49999999999967	-4.783549482611406	-1.816121952729397	29.08482597438316	0	0.9399999999999999	0	38.16907246978958	-11.00979726148153	-10.1546242353429	52.04804103467169	0.9084096852681371	0	0	0	38.16907246978958	-11.00979726148153	-10.1546242353429	52.04804103467169	0.9084096852681371	0	0	0	-4.984872859771008	-0.2882938355681547	-1.984300213480045	31.66404021501652	-3.488726533208891	2.29821929553628	38.6262892581443	119.9506956423616	0	0	41.73290661418813	-15.02493998840389	-3.625599418056929	53.50077691688213	118.179043498287	0	0
19.51999999999967	-4.718629398523805	-1.855842202130426	29.30016241525988	0	0.9399999999999999	0	38.17348546751673	-11.0075377535967	-10.15440236615119	52.04931070117851	0.9084318451290833	0	0	0	38.17348546751673	-11.0075377535967	-10.15440236615119	52.04931070117851	0.9084318451290833	0	0	0	-4.942950562998924	-0.3717527686615926	-1.831417385763218	31.50648396567057	-3.616348358280644	2.137694237388417	38.69991177803809	119.7760657343134	0	0	40.48009261536573	-14.70637959112849	-2.869357800134872	51.80652712739931	120.0513801149336	0	0
19.53999999999967	-4.673596442584059	-1.861447404613465	29.45211296592737	0	0.9399999999999999	0	38.17678332758001	-11.00585967772018	-10.1542371983117	52.05026410418316	0.9084484851506129	0	0	0	38.17678332758001	-11.00585967772018	-10.1542371983117	52.05026410418316	0.9084484851506129	0	0	0	-4.90859509711287	-0.401194876005893	-1.835389693580314	31.44290570693008	-3.694669600212323	2.184976450868744	38.68736787182791	119.7184387667157	0	0	38.70749119373138	-14.09641959225571	-2.818216956348549	45.63356870020127	124.1861757397648	0	0
19.55999999999967	-4.645810871016951	-1.873905233790206	29.72084286503331	0	0.9399999999999999	0	38.18053394548718	-11.00395537783633	-10.15404958170941	52.0513494661166	0.9084674282899273	0	0	0	38.18053394548718	-11.00395537783633	-10.15404958170941	52.0513494661166	0.9084674282899273	0	0	0	-4.895207483272095	-0.4104701693659206	-2.006297684983427	31.42772083953037	-3.748440096928567	2.208376436633026	38.67617172658682	119.6672203513153	0	0	38.23895316938436	-13.78972129150602	-3.211955386575112	41.52283364007897	126.1059263123331	0	0
19.57999999999967	-4.619581326789743	-1.880795377795883	29.89832854173278	0	0.9399999999999999	0	38.18433235668986	-11.00203547327184	-10.15386009797293	52.05245235367133	0.9084866773090366	0	0	0	38.18433235668986	-11.00203547327184	-10.15386009797293	52.05245235367133	0.9084866773090366	0	0	0	-4.880421293835266	-0.4147492455702379	-2.157273977526934	31.38711509741557	-3.72574157077482	2.1667705471475	38.67377752066512	119.7031439204312	0	0	37.97606668549351	-13.52448745760221	-3.552020677338598	37.35097547729364	127.5049565245804	0	0
19.59999999999967	-4.563075822579528	-1.888055226858558	29.84108945375913	0	0.9399999999999999	0	38.18725074557144	-11.00057204624461	-10.15371524729337	52.0533054868801	0.9085015672924878	0	0	0	38.18725074557144	-11.00057204624461	-10.15371524729337	52.0533054868801	0.9085015672924878	0	0	0	-4.832954703048359	-0.4524677547473466	-2.114441122536785	31.38735792990089	-3.685772394774199	2.194019466259793	38.55831221179712	119.6231702248676	0	0	37.71098315849517	-13.2987748734722	-3.520925427308379	33.51019766723038	129.0314868191245	0	0
